<svg width="341" height="83" viewBox="0 0 341 83" fill="none" xmlns="http://www.w3.org/2000/svg">
    <path d="M46.3811 69.9429C45.1864 69.9499 44.1798 69.4438 43.3613 68.4246C42.5432 67.448 41.9365 66.2356 41.5414 64.7872C41.1463 63.3388 40.9437 61.9533 40.9336 60.6307C40.914 58.0708 41.2549 55.2314 41.9563 52.1126C42.6578 48.9937 43.5294 45.8099 44.5712 42.5611C45.6557 39.312 46.7625 36.1908 47.8916 33.1974C49.063 30.1612 50.1088 27.4243 51.0288 24.9869C51.9488 22.5494 52.5952 20.6043 52.9681 19.1514C53.0505 18.7669 53.1119 18.4252 53.1523 18.1263C53.1923 17.7847 53.2115 17.5073 53.2099 17.2939C53.204 16.5259 52.9664 16.1433 52.4971 16.1461C51.8144 16.1501 50.7958 16.8601 49.4413 18.2761C48.0865 19.6494 46.5649 21.5357 44.8765 23.935C43.2305 26.2913 41.587 28.9677 39.9459 31.9641C38.3048 34.9604 36.8352 38.0624 35.5371 41.2701C34.2813 44.4349 33.409 47.5334 32.9202 50.5656C32.7581 51.6759 32.4658 52.5097 32.0434 53.0668C31.6636 53.6237 31.2818 53.9033 30.8978 53.9055C30.5564 53.9076 30.2561 53.696 29.9969 53.2708C29.7376 52.8457 29.6049 52.2278 29.5987 51.4171C29.5298 48.0042 29.397 44.5916 29.2002 41.1793C29.0031 37.7244 28.5938 34.4201 27.9722 31.2664C27.039 26.4078 25.9885 22.9579 24.8209 20.9167C23.6959 18.8753 22.536 17.8581 21.3414 17.8651C20.2321 17.8716 19.1493 18.5607 18.0931 19.9322C17.0793 21.2609 16.1115 23.0372 15.1899 25.2614C14.2679 27.4428 13.4542 29.837 12.7488 32.4438C12.0435 35.0507 11.4872 37.6353 11.0802 40.1977C10.7158 42.7599 10.5413 45.0436 10.5567 47.0489C10.5603 47.5182 10.5639 47.9876 10.5675 48.4569C10.6134 48.8833 10.6592 49.2883 10.7048 49.6721C10.7491 49.8852 10.7722 50.1197 10.7742 50.3757C10.7758 50.589 10.7774 50.8023 10.7791 51.0157C10.7866 51.997 10.6653 52.8724 10.4152 53.6418C10.1651 54.4113 9.86934 54.7971 9.52802 54.7991C9.18669 54.8011 8.86375 54.419 8.55921 53.6528C8.212 52.8868 7.92731 51.9284 7.70516 50.7777C7.48268 49.5843 7.30433 48.5827 7.17012 47.7728C7.08021 47.176 6.88135 46.2812 6.57354 45.0883C6.30839 43.8952 5.97842 42.5957 5.58364 41.19C5.18854 39.7417 4.72976 38.3363 4.20731 36.9741C3.72719 35.5688 3.20605 34.3772 2.64387 33.3992C2.08137 32.3785 1.50032 31.7205 0.900704 31.4254C0.814719 31.3406 0.771399 31.2555 0.770745 31.1701C0.769111 30.9568 0.98146 30.8276 1.40779 30.7824C1.87679 30.737 2.19695 30.7564 2.36827 30.8408C3.26621 31.0915 4.06043 31.7268 4.75093 32.7468C5.48377 33.7238 6.11142 34.8935 6.63387 36.2558C7.19866 37.5752 7.67812 38.895 8.07225 40.2154C8.46605 41.4931 8.79421 42.5579 9.05675 43.4097C9.50352 40.463 10.0359 37.5585 10.654 34.6962C11.3145 31.7909 12.1887 28.9484 13.2768 26.1686C14.826 22.3195 16.3624 19.5797 17.8859 17.9494C19.4092 16.2764 20.8534 15.4359 22.2187 15.4279C23.6694 15.4194 24.9764 16.1584 26.1398 17.6449C27.3456 19.0885 28.3631 21.0239 29.1924 23.4511C30.064 25.8353 30.6599 28.4345 30.9802 31.2487C31.162 32.6983 31.2807 34.2763 31.3365 35.9827C31.3919 37.6464 31.4258 39.2889 31.4382 40.9102L31.4765 45.902C31.482 46.6273 31.4871 47.2887 31.4917 47.886C31.4962 48.4833 31.5213 48.9738 31.5669 49.3575C31.8578 48.3318 32.3375 46.8996 33.0061 45.061C33.6743 43.1797 34.4903 41.0842 35.454 38.7746C36.4173 36.4222 37.5082 34.0051 38.7265 31.5232C39.9449 29.0414 41.2494 26.6657 42.64 24.3961C44.073 22.0837 45.5509 20.0696 47.0738 18.354C48.6391 16.5954 50.2079 15.3062 51.7803 14.4863C52.7154 14.0114 53.5882 13.7716 54.3989 13.7669C55.3376 13.7614 56.129 14.0341 56.7732 14.585C57.4171 15.0932 57.743 15.8593 57.7509 16.8832C57.7626 18.4192 57.4544 19.957 56.8262 21.4968C56.1976 22.9938 55.4409 24.4703 54.5561 25.9262C53.6712 27.382 52.85 28.7949 52.0925 30.1647C50.7461 32.6473 49.4027 35.5139 48.0622 38.7645C46.7218 42.0151 45.5955 45.3711 44.6833 48.8325C43.8138 52.2937 43.3913 55.6242 43.4158 58.8241C43.4236 59.8481 43.474 60.8505 43.5668 61.8313C43.7024 62.8118 43.9015 63.7493 44.1644 64.6438C44.5589 66.0068 45.0354 66.9427 45.594 67.4514C46.1955 68.0026 46.795 68.2764 47.3923 68.2729C48.0323 68.2691 48.6281 68.0736 49.1799 67.6864C49.7319 67.3418 50.1769 66.9552 50.515 66.5265C50.8534 66.1405 51.0009 65.905 50.9576 65.8199C51.3406 65.6897 51.4908 65.7954 51.408 66.1373C51.3257 66.5218 51.1579 66.9068 50.9049 67.2922C50.6522 67.7204 50.4835 67.9774 50.3988 68.0632C48.9149 69.3093 47.5757 69.9358 46.3811 69.9429ZM56.2103 60.669C55.1863 60.675 54.4149 60.2315 53.896 59.3386C53.3775 58.4883 53.1132 57.4018 53.103 56.0792C53.0958 55.1405 53.2788 53.9661 53.6521 52.5559C54.0253 51.1457 54.5473 49.6706 55.2182 48.1306C55.8891 46.5906 56.6461 45.1568 57.4893 43.8292C58.3322 42.4589 59.1985 41.3658 60.0883 40.5499C61.0204 39.6911 61.9344 39.259 62.8304 39.2538C63.5557 39.2495 64.0698 39.5238 64.3727 40.0767C64.718 40.5867 64.8929 41.1403 64.8975 41.7377C64.9014 42.2496 64.7983 42.7196 64.5883 43.1475C64.4206 43.5325 64.166 43.726 63.8247 43.728C63.4834 43.73 63.2262 43.5822 63.0533 43.2845C62.9227 42.9439 62.7921 42.6034 62.6614 42.2628C62.5735 41.922 62.3375 41.7527 61.9535 41.755C61.1855 41.7595 60.4213 42.2546 59.6609 43.2404C58.9004 44.2263 58.2059 45.4677 57.5773 46.9647C56.9488 48.4618 56.4487 50.0221 56.0771 51.6456C55.7052 53.2265 55.524 54.6356 55.5335 55.8729C55.5404 56.7689 55.6524 57.4722 55.8697 57.9829C56.1299 58.5361 56.5374 58.811 57.092 58.8078C57.8174 58.8035 58.5393 58.3513 59.2577 57.451C60.0185 56.5079 60.756 55.3089 61.4702 53.854C62.1841 52.3564 62.8335 50.7953 63.4184 49.1705C64.046 47.5454 64.5677 46.0277 64.9835 44.6172C65.4418 43.1638 65.7956 42.0097 66.0451 41.1549C66.3635 38.1663 66.7458 35.156 67.1919 32.124C67.6807 29.0918 68.4048 26.1435 69.3642 23.2791C69.4886 22.8091 69.6775 22.4026 69.9309 22.0598C70.2269 21.7167 70.5243 21.5443 70.8229 21.5425C71.1643 21.5405 71.4434 21.7736 71.6603 22.2416C71.9199 22.7095 72.052 23.242 72.0566 23.8393C72.0602 24.3087 71.9786 24.7998 71.8118 25.3128C71.6451 25.8258 71.437 26.5097 71.1875 27.3645C70.8967 28.3902 70.5232 29.7578 70.0669 31.4671C69.653 33.1336 69.2196 35.0348 68.7666 37.1709C68.3133 39.2642 67.9251 41.5065 67.6021 43.8978C67.3214 46.2462 67.1901 48.5936 67.2081 50.9402C67.2218 52.7322 67.3594 53.9901 67.621 54.7139C67.8825 55.4377 68.2266 55.7983 68.6533 55.7958C69.1226 55.7931 69.6323 55.4914 70.1824 54.8908C70.7751 54.29 71.3456 53.5613 71.8937 52.7047C72.4845 51.8479 73.0113 50.9915 73.4741 50.1354C73.9365 49.2367 74.2938 48.5306 74.5459 48.0171C75.008 47.0757 75.3671 46.6042 75.6231 46.6027C75.7937 46.6017 75.8805 46.7932 75.8835 47.1772C75.8858 47.4759 75.8242 47.7962 75.6988 48.1383C75.4471 48.6945 75.2797 49.1221 75.1966 49.4213C75.1133 49.6778 75.0086 49.9344 74.8825 50.1911C74.7992 50.4476 74.5889 50.8542 74.2519 51.4109C73.9571 51.9246 73.4932 52.6313 72.8601 53.5311C72.2266 54.3881 71.5073 55.1817 70.7022 55.9118C69.8968 56.5992 69.0888 56.9453 68.2781 56.95C67.4675 56.9548 66.8462 56.6171 66.4143 55.937C66.0251 55.2566 65.7624 54.3834 65.6262 53.3176C65.5324 52.2088 65.4811 51.0784 65.4722 49.9264C65.4614 48.5185 65.514 47.0248 65.6299 45.4454C65.3391 46.4711 64.9431 47.6895 64.4419 49.1005C63.9403 50.4688 63.375 51.8588 62.7458 53.2705C62.1166 54.6822 61.4437 55.9662 60.7272 57.1224C60.1371 58.0645 59.482 58.8791 58.7619 59.566C58.0421 60.2955 57.1916 60.6632 56.2103 60.669ZM88.2054 82.3054C86.0295 82.3182 84.2544 81.7526 82.8803 80.6086C81.5061 79.4647 80.8116 77.9114 80.7965 75.9488C80.7812 73.9435 81.5748 71.7202 83.1775 69.2787C84.4854 67.351 86.411 65.2917 88.9543 63.1007C91.4979 60.9524 94.5973 58.9502 98.2526 57.094C101.907 55.1952 106.014 53.7417 110.571 52.7336C110.611 52.3067 110.629 51.8799 110.626 51.4532C110.622 51.0266 110.619 50.5999 110.616 50.1733C110.588 46.504 110.239 42.7727 109.57 38.9792C108.901 35.1858 108.062 31.4786 107.053 27.8578C106.274 32.0011 105.216 35.9114 103.879 39.5887C102.541 43.2659 101.094 46.5171 99.5372 49.3423C97.9798 52.1248 96.3965 54.3102 94.7873 55.8983C93.2208 57.4862 91.7548 58.2842 90.3895 58.2922C89.2375 58.299 88.23 57.6649 87.3669 56.3899C86.5464 55.1147 85.9546 53.0488 85.5913 50.1922C85.547 49.9792 85.5237 49.7233 85.5214 49.4246C85.5188 49.0833 85.5162 48.742 85.5136 48.4007C85.5028 46.9927 85.5746 45.2216 85.7289 43.0873C85.8829 40.9104 86.0779 38.5199 86.314 35.9158C86.55 33.3117 86.7641 30.6224 86.9562 27.8479C87.1909 25.0731 87.3837 22.384 87.5344 19.7804C87.6848 17.1341 87.7515 14.7017 87.7345 12.4831C87.7142 9.83781 87.5271 7.68421 87.173 6.02227C86.8186 4.31766 86.1934 3.46798 85.2974 3.47324C84.7001 3.47675 84.1479 3.8 83.6408 4.44299C83.1334 5.04331 82.6906 5.72859 82.3125 6.49882C81.8914 7.22664 81.576 7.82584 81.3662 8.29641C81.1138 8.76723 80.9652 8.85344 80.9202 8.55503C80.8762 8.38462 80.8538 8.23542 80.8528 8.10742C80.8088 7.93701 80.7862 7.76647 80.7849 7.59581C80.7786 6.78517 80.9641 5.93073 81.3412 5.0325C81.7184 4.13428 82.2245 3.36329 82.8596 2.71955C83.4946 2.07581 84.2175 1.75156 85.0282 1.7468C85.3268 1.74504 85.6686 1.80704 86.0536 1.93278C87.8081 2.60515 89.0144 4.11275 89.6724 6.45559C90.373 8.79818 90.7357 11.5908 90.7606 14.8333C90.7795 17.3079 90.6716 19.9326 90.4369 22.7074C90.2021 25.4821 89.9247 28.2571 89.6047 31.0324C89.2846 33.8076 89.006 36.4333 88.769 38.9094C88.5319 41.3855 88.4208 43.5835 88.4355 45.5035C88.4391 45.9728 88.4427 46.4421 88.4463 46.9114C88.4922 47.3378 88.538 47.7429 88.5836 48.1266C88.9455 50.8126 89.4294 52.7084 90.0352 53.8142C90.641 54.92 91.3279 55.4706 92.0959 55.4661C92.9492 55.4611 93.8203 54.9867 94.7091 54.0428C95.6405 53.0986 96.5489 51.9199 97.4341 50.5067C98.3193 49.0935 99.1191 47.6808 99.8337 46.2685C100.717 44.5993 101.554 42.525 102.346 40.0457C103.137 37.5237 103.864 34.938 104.527 32.2887C105.231 29.5966 105.789 27.1613 106.199 24.9828L105.609 23.1303C105.518 22.4908 105.664 22.0206 106.046 21.7197C106.427 21.3761 106.831 21.203 107.258 21.2005C108.111 21.1955 108.668 21.5336 108.93 22.2147C109.581 23.7469 110.152 25.8129 110.641 28.4128C111.173 31.0124 111.579 33.8474 111.858 36.9178C112.138 39.9455 112.288 42.9313 112.311 45.8752C112.319 46.9845 112.307 48.094 112.272 49.2035C112.238 50.2704 112.182 51.2947 112.104 52.2766C113.468 52.0552 114.853 51.8551 116.26 51.6761C117.709 51.4543 119.201 51.3389 120.737 51.3298L121.057 51.328C121.569 51.3249 121.826 51.4088 121.827 51.5794C121.828 51.7074 121.68 51.8576 121.382 52.0301C121.085 52.1598 120.659 52.2476 120.104 52.2936C118.782 52.3867 117.418 52.544 116.012 52.7656C114.648 52.9443 113.285 53.2083 111.922 53.5576C111.187 57.8714 110.128 61.6323 108.744 64.8405C107.361 68.0487 105.803 70.7459 104.07 72.9321C102.337 75.1183 100.58 76.878 98.7984 78.2111C96.8892 79.6303 95.0197 80.6653 93.19 81.3161C91.3603 81.9669 89.6987 82.2966 88.2054 82.3054ZM87.4941 81.3496C88.3901 81.3443 89.4127 81.1676 90.5621 80.8195C91.7115 80.4714 92.9444 79.8882 94.2608 79.0698C97.234 77.303 99.8626 75.1115 102.147 72.4954C104.431 69.9219 106.286 67.0523 107.713 63.8865C109.14 60.7634 110.053 57.494 110.454 54.0783C107.473 54.8638 104.41 56.0338 101.264 57.5883C98.1616 59.1426 95.2527 60.9517 92.5378 63.0156C89.8228 65.0796 87.5574 67.333 85.7414 69.7757C84.7699 71.0614 84.054 72.303 83.5938 73.5003C83.134 74.7404 82.908 75.8724 82.9158 76.8964C82.926 78.219 83.3395 79.2833 84.1563 80.0891C84.9309 80.9379 86.0434 81.3581 87.4941 81.3496ZM117.8 56.7872C117.245 56.7904 116.774 56.5159 116.385 55.9635C116.04 55.4108 115.884 54.5157 115.917 53.2782C115.912 52.6809 116.075 51.6986 116.406 50.3313C116.737 48.9213 117.088 47.3619 117.458 45.653C117.872 43.9439 118.222 42.2778 118.508 40.6548C118.837 39.0315 118.998 37.7078 118.99 36.6839C118.986 36.2145 118.941 35.8308 118.853 35.5327C118.765 35.1918 118.55 35.0224 118.209 35.0244C117.953 35.0259 117.719 35.1553 117.508 35.4126C117.296 35.6271 117.085 35.8417 116.873 36.0563C116.577 36.442 116.408 36.635 116.365 36.6353C116.323 36.6355 116.301 36.5717 116.3 36.4437C116.296 35.9317 116.484 35.3759 116.863 34.7763C117.285 34.1338 117.773 33.811 118.328 33.8077C119.01 33.8037 119.504 34.1421 119.808 34.823C120.111 35.4613 120.267 36.3777 120.277 37.5723C120.287 38.895 120.149 40.3891 119.863 42.0548C119.577 43.7205 119.269 45.2797 118.939 46.7323C118.773 47.416 118.63 48.2488 118.51 49.2309C118.389 50.2129 118.333 51.1733 118.34 52.1119C118.346 52.9226 118.415 53.6048 118.548 54.1587C118.722 54.6697 119.023 54.924 119.45 54.9215C119.791 54.9194 120.195 54.7251 120.661 54.3383C121.17 53.9087 121.762 53.2012 122.437 52.2159C123.408 50.8448 124.27 49.2824 125.025 47.5286C125.822 45.7319 126.556 44.1062 127.228 42.6516C127.479 42.0528 127.797 41.7522 128.181 41.75C129.162 41.7442 129.657 42.2746 129.665 43.3413C129.671 44.1519 129.551 45.1766 129.305 46.4154C129.1 47.6113 129.003 48.7639 129.011 49.8732C129.026 51.8785 129.418 52.8789 130.186 52.8744C130.57 52.8721 130.952 52.6352 131.333 52.1636C131.755 51.6491 131.988 51.3491 132.03 51.2635C132.284 50.9633 132.517 50.8126 132.73 50.8114C132.986 50.8099 133.116 50.9585 133.118 51.2571C133.122 51.8118 132.807 52.411 132.172 53.0547C131.536 53.6984 130.856 54.0224 130.131 54.0267C129.448 54.0307 128.892 53.7993 128.462 53.3325C128.074 52.8228 127.706 52.1636 127.358 51.3549C126.967 50.3759 126.768 49.5237 126.763 48.7984C126.757 48.0731 126.709 47.3694 126.619 46.6872C126.328 47.7129 125.824 48.8039 125.108 49.9601C124.434 51.1161 123.653 52.2301 122.765 53.302C121.92 54.3309 121.051 55.168 120.16 55.8133C119.269 56.4585 118.482 56.7832 117.8 56.7872ZM138.352 59.9305C137.797 59.9338 137.39 59.7442 137.132 59.3617C136.916 59.0216 136.806 58.6809 136.804 58.3396C136.798 57.6569 137.092 56.9512 137.683 56.2224C137.895 55.9651 138.191 55.6221 138.572 55.1931C138.952 54.7216 139.227 54.3573 139.395 54.1003C138.835 53.3356 138.083 52.636 137.139 52.0015C136.196 51.367 135.272 50.5618 134.369 49.5857C133.551 48.6945 132.86 47.6106 132.296 46.3339C131.731 45.0145 131.444 43.7575 131.435 42.5629C131.424 41.1549 131.734 39.8091 132.364 38.5253C132.994 37.2416 133.775 36.1277 134.706 35.1835C135.722 34.1535 136.847 33.3363 138.08 32.7317C139.312 32.0844 140.589 31.7569 141.912 31.7492C142.808 31.7439 143.684 31.9521 144.541 32.3737C145.398 32.7954 145.83 33.4968 145.837 34.4781C145.846 35.6301 145.594 36.2076 145.082 36.2106C144.869 36.2119 144.718 35.9994 144.629 35.5733C144.585 35.3602 144.562 35.147 144.561 34.9337C144.559 34.6777 144.557 34.507 144.557 34.4217C144.553 33.995 144.359 33.6335 143.972 33.3371C143.586 32.998 143.158 32.8299 142.688 32.8326C141.707 32.8384 140.622 33.2288 139.433 34.0038C138.245 34.7787 137.249 35.6806 136.446 36.7093C135.643 37.7807 134.991 39.0006 134.49 40.3689C133.988 41.6945 133.742 42.976 133.751 44.2133C133.763 45.7492 134.115 47.0699 134.806 48.1752C135.497 49.2804 136.315 50.257 137.26 51.1048C138.248 51.9523 139.129 52.7792 139.903 53.5853C140.284 53.1137 140.686 52.6634 141.109 52.2342C141.575 51.8048 141.999 51.461 142.381 51.2027C142.721 50.9874 142.955 50.8793 143.083 50.8786C143.211 50.8778 143.275 50.9414 143.276 51.0694C143.278 51.2828 143.088 51.5399 142.706 51.8408C142.621 51.9266 142.367 52.1841 141.944 52.6133C141.563 52.9995 141.097 53.4929 140.547 54.0935C140.892 54.4755 141.172 54.8792 141.389 55.3046C141.605 55.73 141.715 56.1987 141.719 56.7107C141.725 57.3933 141.346 58.0996 140.584 58.8294C139.821 59.5592 139.077 59.9262 138.352 59.9305ZM139.043 58.1984C139.341 58.1967 139.617 57.9177 139.868 57.3616C140.163 56.8478 140.308 56.335 140.304 55.823C140.303 55.567 140.258 55.3326 140.171 55.1197C140.084 54.9069 140.019 54.7793 139.976 54.7369C139.638 55.1655 139.322 55.6367 139.027 56.1505C138.775 56.6213 138.65 57.0487 138.653 57.4327C138.657 57.9447 138.787 58.1999 139.043 58.1984ZM148.862 56.6047C148.307 56.608 147.836 56.3334 147.447 55.781C147.102 55.2284 146.946 54.3333 146.979 53.0957C146.974 52.4984 147.137 51.5161 147.468 50.1488C147.799 48.7388 148.149 47.1794 148.52 45.4706C148.934 43.7614 149.284 42.0954 149.57 40.4723C149.899 38.849 150.06 37.5254 150.052 36.5014C150.048 36.0321 150.003 35.6484 149.915 35.3502C149.827 35.0094 149.612 34.84 149.271 34.842C149.015 34.8435 148.781 34.9729 148.57 35.2301C148.358 35.4447 148.147 35.6593 147.935 35.8738C147.639 36.2596 147.47 36.4526 147.427 36.4528C147.385 36.4531 147.363 36.3892 147.362 36.2612C147.358 35.7492 147.546 35.1935 147.925 34.5939C148.347 33.9514 148.835 33.6285 149.39 33.6253C150.072 33.6213 150.566 33.9597 150.869 34.6406C151.173 35.2788 151.329 36.1952 151.339 37.3899C151.349 38.7125 151.211 40.2067 150.925 41.8724C150.639 43.5381 150.331 45.0972 150.001 46.5499C149.835 47.2335 149.692 48.0664 149.572 49.0484C149.451 50.0305 149.395 50.9908 149.402 51.9295C149.408 52.7401 149.477 53.4224 149.61 53.9763C149.784 54.4873 150.085 54.7415 150.511 54.739C150.853 54.737 151.257 54.5426 151.723 54.1559C152.232 53.7262 152.824 53.0187 153.499 52.0334C154.47 50.6624 155.332 49.0999 156.087 47.3461C156.884 45.5494 157.618 43.9238 158.29 42.4691C158.541 41.8703 158.859 41.5698 159.243 41.5675C160.224 41.5618 160.719 42.0922 160.727 43.1588C160.733 43.9695 160.613 44.9942 160.367 46.233C160.162 47.4289 160.065 48.5815 160.073 49.6908C160.088 51.696 160.48 52.6964 161.248 52.6919C161.632 52.6897 162.014 52.4527 162.395 51.9812C162.817 51.4667 163.05 51.1666 163.092 51.0811C163.345 50.7809 163.579 50.6302 163.792 50.6289C164.048 50.6274 164.177 50.776 164.18 51.0747C164.184 51.6293 163.869 52.2285 163.234 52.8723C162.598 53.516 161.918 53.84 161.193 53.8443C160.51 53.8483 159.954 53.6169 159.524 53.15C159.136 52.6403 158.768 51.9811 158.42 51.1725C158.029 50.1934 157.83 49.3413 157.825 48.616C157.819 47.8906 157.771 47.1869 157.681 46.5048C157.39 47.5305 156.886 48.6215 156.17 49.7777C155.496 50.9337 154.715 52.0476 153.827 53.1195C152.982 54.1485 152.113 54.9856 151.222 55.6308C150.331 56.2761 149.544 56.6007 148.862 56.6047ZM152.634 74.9509C151.695 74.9564 150.947 74.7261 150.389 74.26C149.788 73.8369 149.485 73.3267 149.481 72.7293C149.478 72.388 149.582 72.0674 149.793 71.7675C149.962 71.5105 150.196 71.3811 150.494 71.3794C150.964 71.3766 151.306 71.5453 151.522 71.8853C151.739 72.2681 151.955 72.6508 152.171 73.0335C152.431 73.544 152.838 73.7976 153.393 73.7944C154.204 73.7896 155.203 73.3144 156.39 72.3688C158.129 71.0358 159.546 69.3208 160.639 67.2237C161.69 65.1695 162.612 62.9667 163.404 60.6154C164.406 57.7081 165.191 54.3754 165.76 50.6174C166.371 46.8591 166.961 43.0795 167.529 39.2788C167.017 39.3245 166.506 39.3915 165.994 39.4798C165.483 39.5255 164.992 39.571 164.523 39.6165C164.395 39.6172 164.203 39.4904 163.945 39.2359C163.687 38.9814 163.471 38.7266 163.299 38.4716C163.168 38.1737 163.167 38.0244 163.295 38.0237C164.873 37.8437 166.365 37.707 167.772 37.6134C168.057 35.7343 168.362 33.8978 168.69 32.1039C169.017 30.2673 169.388 28.5371 169.802 26.9133C170.217 25.2895 170.758 23.6223 171.428 21.9116C172.14 20.2008 172.961 18.7666 173.891 17.6091C174.863 16.4087 175.947 15.805 177.141 15.798C178.123 15.7922 179.064 16.1067 179.965 16.7414C180.866 17.3761 181.321 18.3335 181.331 19.6134C181.336 20.2961 181.15 21.1079 180.773 22.0488C180.397 22.9896 179.743 24.0175 178.813 25.1323C178.686 25.2611 178.601 25.3256 178.558 25.3258C178.388 25.3268 178.301 25.1567 178.298 24.8153C178.296 24.474 178.379 24.1962 178.548 23.9819C179.52 22.6961 180.001 21.5199 179.993 20.4533C179.984 19.216 179.446 18.6005 178.379 18.6068C177.44 18.6123 176.4 19.3224 175.259 20.7371C174.118 22.1518 173.111 24.4405 172.24 27.603C171.907 28.7996 171.598 30.1668 171.311 31.7045C171.024 33.2422 170.653 34.9511 170.198 36.8311L170.012 37.6002C171.463 37.5917 172.722 37.6696 173.79 37.834C174.9 37.9555 175.734 38.0999 176.289 38.2673C176.418 38.3093 176.482 38.3942 176.483 38.5222C176.485 38.7355 176.358 38.8429 176.102 38.8445C175.206 38.8497 174.203 38.8769 173.094 38.9261C172.028 38.975 170.919 39.0456 169.768 39.1377C169.115 42.9816 168.419 46.8684 167.681 50.7981C166.986 54.7276 166.095 58.2315 165.01 61.31C164.008 64.1745 162.832 66.7202 161.484 68.9468C160.093 71.1737 158.505 72.783 156.721 73.7748C155.276 74.5513 153.914 74.9433 152.634 74.9509ZM210.291 80.7563C208.329 80.7678 206.424 79.9683 204.577 78.3578C202.773 76.7471 201.24 74.4094 199.979 71.3447C198.761 68.2798 198.028 64.5721 197.782 60.2214C196.46 60.3572 195.245 60.4284 194.135 60.4349C191.661 60.4494 189.845 60.1401 188.688 59.5068C187.574 58.8734 187.013 58.0447 187.005 57.0207C186.997 55.9967 187.479 54.8632 188.451 53.6202C189.423 52.3771 190.779 51.1318 192.518 49.8842C194.258 48.594 196.297 47.43 198.636 46.3922C199.413 42.0356 200.679 37.3347 202.432 32.2897C204.228 27.2017 206.64 21.8115 209.668 16.1189C209.963 15.5625 210.409 15.2826 211.006 15.2791C211.39 15.2768 211.732 15.4028 212.033 15.6571C212.333 15.9113 212.485 16.2517 212.489 16.6784C212.49 16.8917 212.428 17.1694 212.303 17.5115C209.615 23.0314 207.371 28.1006 205.571 32.7193C203.814 37.295 202.438 41.4845 201.443 45.2877C203.358 44.5511 205.401 43.9418 207.574 43.4597C209.746 42.9776 211.963 42.6872 214.223 42.5886C214.82 42.5851 215.12 42.6687 215.121 42.8393C215.122 43.01 214.91 43.1819 214.485 43.3551C214.102 43.4853 213.441 43.5745 212.503 43.6227C210.413 43.763 208.41 44.0734 206.494 44.554C204.62 44.9917 202.853 45.5354 201.194 46.1852C200.573 48.6635 200.1 50.9704 199.775 53.1056C199.45 55.1982 199.252 57.1408 199.18 58.9332C203.567 57.9688 207.546 56.58 211.116 54.767C214.729 52.9111 217.913 50.7804 220.668 48.3748C223.423 45.9693 225.729 43.481 227.587 40.9101C228.769 39.2818 229.611 37.8475 230.114 36.6072C230.659 35.324 230.927 34.213 230.92 33.2744C230.91 31.9091 230.475 30.845 229.616 30.082C228.756 29.2764 227.621 28.707 226.211 28.374C224.8 27.9983 223.262 27.8153 221.598 27.8251C219.849 27.8353 218.08 28.0164 216.29 28.3682C214.501 28.6774 212.883 29.1136 211.436 29.6768C211.095 29.7641 210.861 29.8082 210.733 29.8089C210.178 29.8122 209.9 29.6218 209.897 29.2378C209.894 28.8538 210.126 28.5538 210.594 28.3377C215.819 25.3203 219.531 22.5891 221.731 20.1442C223.931 17.6992 225.025 15.6447 225.012 13.9808C225.001 12.5302 224.31 11.4249 222.939 10.6649C221.61 9.86204 219.858 9.46699 217.682 9.47977C215.975 9.4898 214.057 9.7784 211.928 10.3456C209.799 10.9128 207.609 11.8216 205.357 13.0722C203.487 14.1072 201.79 15.3332 200.265 16.7502C198.782 18.1242 197.513 19.5611 196.458 21.0606C195.445 22.5173 194.687 23.9084 194.186 25.234C193.683 26.517 193.5 27.6061 193.635 28.5013C193.635 28.5866 193.636 28.6933 193.637 28.8213C193.68 28.9064 193.702 28.9916 193.703 29.0769C193.711 30.1436 193.395 30.6788 192.755 30.6825C192.457 30.6843 192.135 30.4728 191.79 30.0482C191.489 29.6233 191.334 28.9842 191.328 28.1309C191.318 26.8509 191.691 25.4833 192.448 24.0282C193.248 22.5728 194.303 21.1159 195.615 19.6575C196.969 18.1562 198.473 16.7607 200.127 15.471C201.781 14.1386 203.5 12.9978 205.285 12.0486C207.579 10.7978 209.834 9.86721 212.048 9.25686C214.304 8.64626 216.371 8.33545 218.249 8.32442C220.851 8.30914 222.967 8.80872 224.596 9.82316C226.226 10.8376 227.047 12.2621 227.061 14.0968C227.074 15.8034 226.258 17.7922 224.611 20.0632C222.964 22.3343 220.189 24.8466 216.284 27.6003C217.605 27.3792 218.842 27.2226 219.993 27.1305C221.144 26.9957 222.21 26.9254 223.191 26.9197C226.861 26.8981 229.511 27.5012 231.141 28.729C232.815 29.9139 233.658 31.4663 233.673 33.3862C233.684 34.7942 233.29 36.3325 232.493 38.0012C231.737 39.627 230.662 41.3187 229.267 43.0762C227.239 45.6055 224.676 48.0526 221.579 50.4175C218.525 52.7822 215.085 54.8291 211.258 56.5582C207.474 58.2872 203.429 59.4629 199.125 60.0856C199.069 63.8833 199.434 67.0172 200.221 69.4873C201.05 71.9571 202.089 73.871 203.337 75.2291C204.585 76.6297 205.83 77.6038 207.071 78.1512C208.313 78.7412 209.34 79.0339 210.15 79.0291C210.748 79.0256 211.152 78.9165 211.364 78.702C211.533 78.4876 211.788 78.3795 212.129 78.3775C212.471 78.3755 212.792 78.5016 213.092 78.7558C213.393 79.01 213.544 79.2865 213.547 79.5852C213.549 79.8411 213.401 80.034 213.103 80.1638C212.167 80.5533 211.23 80.7508 210.291 80.7563ZM194.385 59.6014C194.854 59.5986 195.366 59.553 195.92 59.4644C196.474 59.4184 197.071 59.3509 197.71 59.2619C197.654 57.4702 197.682 55.5926 197.795 53.6293C197.908 51.6659 198.127 49.6166 198.452 47.4813C195.732 48.9053 193.59 50.4966 192.025 52.2551C190.459 53.971 189.681 55.4903 189.691 56.8129C189.698 57.6236 190.087 58.2826 190.859 58.7901C191.631 59.3402 192.806 59.6107 194.385 59.6014ZM241.128 35.1985C240.744 35.2007 240.465 35.0104 240.292 34.6274C240.161 34.2015 240.094 33.9032 240.093 33.7325C240.088 33.0499 240.275 32.4088 240.654 31.8092C241.076 31.1667 241.543 30.8226 242.054 30.777L242.246 30.7758C242.758 30.7728 243.101 30.8988 243.273 31.1538C243.488 31.3659 243.597 31.6426 243.6 31.9839C243.605 32.6239 243.333 33.3295 242.784 34.1007C242.235 34.8293 241.683 35.1952 241.128 35.1985ZM238.04 58.129C236.589 58.1375 235.604 57.5886 235.083 56.4823C234.563 55.376 234.297 54.0975 234.286 52.6469C234.275 51.1963 234.412 49.6808 234.699 48.1004C235.028 46.4771 235.379 45.003 235.753 43.6782C236.17 42.353 236.482 41.4125 236.691 40.8566C237.153 39.8725 237.616 39.0378 238.08 38.3524C238.544 37.6243 239.053 37.2587 239.608 37.2554C239.992 37.2532 240.27 37.4009 240.443 37.6985C240.659 37.9533 240.768 38.294 240.771 38.7206C240.778 39.5739 240.55 40.4499 240.087 41.3487C239.625 42.2047 239.204 43.0179 238.826 43.7881C237.986 45.5424 237.315 47.1037 236.814 48.472C236.355 49.8401 236.133 51.5481 236.149 53.596C236.159 54.9186 236.295 55.8778 236.555 56.4737C236.858 57.0692 237.266 57.3655 237.778 57.3625C238.461 57.3585 239.247 56.9698 240.137 56.1966C241.027 55.3807 241.936 54.3087 242.865 52.9805C243.793 51.6524 244.614 50.2182 245.328 48.678C245.789 47.6939 246.148 47.2012 246.404 47.1997C246.575 47.1987 246.662 47.3688 246.664 47.7101C246.668 48.1795 246.481 48.8632 246.104 49.7615C245.769 50.6168 245.349 51.4939 244.844 52.3929C244.382 53.2916 243.939 53.9982 243.516 54.5127C242.798 55.4556 241.973 56.2925 241.039 57.0233C240.106 57.7541 239.107 58.1227 238.04 58.129ZM258.646 57.3039C258.091 57.3072 257.598 56.9687 257.166 56.2886C256.734 55.5658 256.51 54.2017 256.495 52.1965C256.483 50.6178 256.598 48.8891 256.839 47.0104C257.08 45.0889 257.343 43.1887 257.628 41.3096C257.954 39.4304 258.24 37.7647 258.485 36.3125C258.73 34.8177 258.85 33.729 258.844 33.0464C258.835 31.8517 258.468 31.2566 257.743 31.2608C257.06 31.2648 256.359 31.6103 255.638 32.2972C254.961 32.9838 254.306 33.8197 253.674 34.8048C253.084 35.7896 252.558 36.7527 252.096 37.6941C251.676 38.5926 251.404 39.2555 251.279 39.6829C250.694 41.3504 250.28 43.0168 250.037 44.6823C249.794 46.3051 249.679 47.9911 249.692 49.7404C249.697 50.4657 249.725 51.2122 249.773 51.9799C249.864 52.7474 249.934 53.5364 249.983 54.3467C250.072 54.7729 249.948 55.307 249.611 55.949C249.317 56.548 248.957 56.8488 248.53 56.8513C248.232 56.8531 247.974 56.6626 247.758 56.2798C247.542 55.8971 247.39 55.5567 247.302 55.2585C247.128 54.7475 246.995 54.215 246.906 53.6608C246.816 53.064 246.727 52.5525 246.638 52.1264C246.326 50.3788 246.035 48.6098 245.765 46.8194C245.495 44.9863 245.119 43.2178 244.637 41.514C244.505 41.0454 244.331 40.5557 244.113 40.045C243.939 39.4914 243.658 39.045 243.271 38.7059C243.185 38.6211 243.057 38.5365 242.885 38.4522C242.714 38.3252 242.627 38.219 242.627 38.1337C242.625 37.963 242.859 37.8763 243.329 37.8736C243.841 37.8706 244.355 38.1236 244.871 38.6325C245.387 39.1415 245.861 39.8214 246.294 40.6722C246.815 41.7358 247.25 42.864 247.6 44.0566C247.993 45.249 248.299 46.2072 248.518 46.9312C248.763 45.3938 249.029 44.0269 249.319 42.8305C249.61 41.8047 250.006 40.5864 250.507 39.1754C251.008 37.7218 251.637 36.3101 252.395 34.9403C253.152 33.5278 254.06 32.3705 255.12 31.4682C256.18 30.5233 257.413 30.0467 258.821 30.0385C260.869 30.0264 261.902 31.215 261.921 33.6043C261.93 34.8416 261.727 36.2082 261.312 37.7039C260.896 39.1571 260.437 40.5038 259.935 41.7441C259.475 42.9842 259.162 43.8393 258.995 44.3097C258.786 44.9082 258.557 45.7203 258.309 46.7457C258.104 47.771 257.92 48.8387 257.758 49.949C257.638 51.0591 257.582 52.0834 257.589 53.0221C257.595 53.8327 257.686 54.5148 257.861 55.0685C258.078 55.5792 258.4 55.8333 258.827 55.8308C259.253 55.8283 259.636 55.6341 259.974 55.2481C260.312 54.8194 260.587 54.4338 260.798 54.0912C261.051 53.7484 261.178 53.6837 261.18 53.897C261.27 54.5365 261.041 55.2631 260.493 56.077C259.987 56.8907 259.371 57.2997 258.646 57.3039ZM299.772 73.3826C298.321 73.3911 296.973 72.887 295.728 71.8703C294.483 70.8536 293.62 69.5574 293.138 67.9815C292.963 67.3852 292.83 66.7459 292.74 66.0638C292.692 65.4241 292.666 64.7415 292.66 64.0162C292.642 61.7123 292.921 59.0866 293.496 56.1392C294.113 53.1915 294.9 50.0722 295.856 46.7812C296.855 43.4473 297.938 40.1129 299.107 36.7779C300.319 33.4001 301.489 30.1505 302.617 27.0292C303.787 23.8649 304.853 20.9573 305.814 18.3063C306.775 15.6126 307.526 13.3468 308.066 11.5089C308.358 10.5685 308.501 9.79968 308.496 9.20237C308.491 8.43439 308.232 8.0519 307.72 8.05491C307.08 8.05867 306.103 8.68308 304.79 9.92815C303.477 11.1732 301.975 12.8674 300.285 15.0107C298.594 17.154 296.843 19.639 295.03 22.4657C293.217 25.2924 291.49 28.2892 289.85 31.4562C288.211 34.6232 286.785 37.8317 285.572 41.0815C284.36 44.3313 283.488 47.4725 282.956 50.505C282.916 50.8039 282.877 51.2735 282.839 51.9137C282.801 52.554 282.699 53.1306 282.532 53.6436C282.408 54.1563 282.133 54.4139 281.706 54.4164C280.767 54.3793 280.102 53.9138 279.711 53.0201C279.363 52.1262 279.122 51.2956 278.988 50.5283C278.63 48.2691 278.439 45.6248 278.415 42.5956C278.397 40.1636 278.484 37.6458 278.678 35.0419C278.871 32.4381 279.151 29.9617 279.517 27.6129C279.883 25.264 280.316 23.2774 280.815 21.6531C281.149 20.6272 281.611 19.7071 282.202 18.893C282.835 18.0359 283.408 17.6059 283.92 17.6028C284.219 17.6011 284.455 17.813 284.629 18.2387C284.846 18.6641 284.937 19.4316 284.903 20.5411C284.906 21.0104 284.7 21.9077 284.283 23.2328C283.909 24.515 283.453 26.1817 282.914 28.2329C282.417 30.2839 281.987 32.6544 281.624 35.3446C281.261 38.0348 281.091 41.0012 281.116 44.2437C281.128 45.7797 281.204 47.3793 281.345 49.0425C281.72 47.8456 282.283 46.1782 283.035 44.0405C283.829 41.9024 284.792 39.4861 285.923 36.7914C287.097 34.0964 288.399 31.3154 289.827 28.4483C291.298 25.5383 292.877 22.713 294.563 19.9724C296.248 17.2318 298.021 14.7466 299.882 12.517C301.742 10.2874 303.648 8.5055 305.601 7.17134C306.577 6.5256 307.599 6.19959 308.665 6.19333C309.817 6.18656 310.802 6.54345 311.618 7.264C312.477 7.9843 312.868 9.00602 312.793 10.3291C312.722 12.1216 312.288 13.9375 311.491 15.7769C310.737 17.5733 309.833 19.328 308.779 21.0409C307.768 22.7535 306.821 24.4018 305.937 25.9857C304.717 28.2542 303.478 30.7788 302.219 33.5596C301.003 36.3401 299.873 39.2482 298.83 42.2837C297.829 45.3189 297.02 48.3744 296.404 51.4501C295.787 54.5257 295.49 57.4928 295.512 60.3514C295.53 62.7407 295.847 65.0642 296.461 67.322C296.943 68.9832 297.528 70.1317 298.216 70.7677C298.946 71.4034 299.653 71.7193 300.335 71.7153C301.103 71.7108 301.806 71.4933 302.442 71.0629C303.122 70.6322 303.651 70.1598 304.031 69.6455C304.454 69.1737 304.644 68.8953 304.601 68.8102C304.686 68.767 304.771 68.7452 304.857 68.7447C305.155 68.7429 305.221 68.9345 305.053 69.3195C304.928 69.7469 304.739 70.1747 304.487 70.6029C304.234 71.0737 304.045 71.3735 303.918 71.5022C303.283 72.146 302.604 72.6193 301.88 72.9222C301.2 73.2249 300.497 73.3784 299.772 73.3826ZM308.109 55.6694C307.554 55.6726 307.083 55.3981 306.695 54.8457C306.349 54.293 306.193 53.3979 306.226 52.1604C306.221 51.5631 306.385 50.5807 306.715 49.2135C307.046 47.8035 307.397 46.2441 307.768 44.5352C308.181 42.8261 308.531 41.16 308.817 39.537C309.146 37.9137 309.307 36.59 309.299 35.5661C309.295 35.0967 309.25 34.713 309.162 34.4149C309.074 34.074 308.86 33.9046 308.518 33.9066C308.262 33.9081 308.029 34.0375 307.817 34.2947C307.605 34.5093 307.394 34.7239 307.182 34.9385C306.886 35.3242 306.717 35.5172 306.675 35.5175C306.632 35.5177 306.61 35.4539 306.609 35.3259C306.605 34.8139 306.793 34.2581 307.172 33.6585C307.594 33.016 308.082 32.6932 308.637 32.6899C309.32 32.6859 309.813 33.0243 310.117 33.7052C310.42 34.3435 310.577 35.2599 310.586 36.4545C310.596 37.7771 310.458 39.2713 310.172 40.937C309.886 42.6027 309.578 44.1619 309.248 45.6145C309.083 46.2982 308.94 47.131 308.819 48.1131C308.699 49.0951 308.642 50.0555 308.649 50.9941C308.655 51.8048 308.725 52.487 308.857 53.0409C309.031 53.5519 309.332 53.8062 309.759 53.8036C310.1 53.8016 310.504 53.6073 310.97 53.2205C311.479 52.7909 312.071 52.0834 312.746 51.0981C313.717 49.727 314.58 48.1646 315.334 46.4108C316.131 44.6141 316.865 42.9884 317.537 41.5338C317.788 40.935 318.106 40.6344 318.49 40.6322C319.471 40.6264 319.966 41.1568 319.974 42.2235C319.98 43.0341 319.86 44.0588 319.614 45.2976C319.41 46.4935 319.312 47.6461 319.32 48.7554C319.336 50.7607 319.727 51.7611 320.495 51.7566C320.879 51.7543 321.262 51.5174 321.642 51.0458C322.065 50.5313 322.297 50.2313 322.339 50.1457C322.593 49.8455 322.826 49.6948 323.04 49.6936C323.296 49.6921 323.425 49.8407 323.427 50.1393C323.431 50.694 323.116 51.2932 322.481 51.9369C321.846 52.5806 321.165 52.9046 320.44 52.9089C319.757 52.9129 319.201 52.6815 318.771 52.2147C318.383 51.705 318.015 51.0458 317.668 50.2371C317.276 49.2581 317.078 48.4059 317.072 47.6806C317.066 46.9553 317.018 46.2516 316.928 45.5694C316.637 46.5951 316.133 47.6861 315.417 48.8423C314.743 49.9983 313.962 51.1122 313.074 52.1841C312.229 53.2131 311.361 54.0502 310.47 54.6955C309.578 55.3407 308.792 55.6654 308.109 55.6694ZM331.544 59.2438C330.179 59.2518 329.129 58.618 328.394 57.3422C327.659 56.1092 327.286 54.746 327.274 53.2528C327.264 51.8448 327.487 50.3715 327.945 48.8328C328.402 47.294 328.967 45.776 329.638 44.2787C330.352 42.7812 331.088 41.4115 331.846 40.1697C331.081 40.4729 330.356 40.6265 329.674 40.6305C329.333 40.6325 329.034 40.5916 328.777 40.5077C328.52 40.4239 328.306 40.3612 328.135 40.3195C327.926 40.8327 327.549 41.6883 327.003 42.8862C326.5 44.0838 325.955 45.3457 325.368 46.6719C324.823 47.9551 324.341 49.0459 323.921 49.9444C323.249 51.399 322.658 52.1279 322.146 52.1309C321.89 52.1324 321.76 51.9625 321.758 51.6211C321.756 51.3651 321.86 51.0232 322.07 50.5953C323.037 48.7549 323.941 46.9362 324.78 45.1393C325.663 43.3421 326.46 41.6094 327.172 39.9412C327.086 39.7283 326.998 39.4515 326.91 39.1107C326.822 38.7272 326.776 38.3221 326.773 37.8955C326.769 37.4261 326.808 36.9352 326.89 36.4228C327.013 35.8674 327.18 35.333 327.389 34.8198C327.515 34.5204 327.746 34.0924 328.083 33.5357C328.42 32.9364 328.8 32.4008 329.223 31.929C329.646 31.4145 330.049 31.1561 330.433 31.1539C331.159 31.1496 331.524 31.5315 331.53 32.2994C331.536 33.0248 331.307 33.8581 330.845 34.7995C330.426 35.7406 329.984 36.6179 329.521 37.4313C329.058 38.2021 328.828 38.7794 328.831 39.1634C328.833 39.5047 329.005 39.6744 329.346 39.6724C329.816 39.6696 330.39 39.4316 331.069 38.9582C331.79 38.442 332.363 37.9693 332.786 37.5401C332.998 37.3256 333.337 37.0036 333.803 36.5742C334.269 36.1021 334.715 35.8648 335.141 35.8623C335.568 35.8598 335.846 35.9861 335.976 36.2414C336.149 36.4964 336.237 36.7945 336.239 37.1359C336.242 37.5198 336.075 38.0115 335.739 38.6108C335.401 39.1675 335 39.7245 334.535 40.2819C334.113 40.8391 333.754 41.3105 333.458 41.6963C332.868 42.5957 332.194 43.7304 331.436 45.1002C330.679 46.47 330.029 47.9458 329.486 49.5277C328.943 51.0669 328.677 52.5405 328.688 53.9485C328.695 54.8871 328.937 55.867 329.414 56.8882C329.892 57.9095 330.535 58.4177 331.346 58.4129C332.071 58.4087 332.836 58.0202 333.641 57.2474C334.489 56.4744 335.271 55.5525 335.988 54.4816C336.748 53.4105 337.401 52.3826 337.949 51.398C338.538 50.4132 338.938 49.7282 339.149 49.343C339.233 49.1291 339.38 48.8723 339.591 48.5723C339.802 48.2298 340.056 48.0576 340.355 48.0558C340.611 48.0543 340.74 48.1816 340.742 48.4376C340.744 48.6509 340.682 48.9073 340.556 49.2067C340.472 49.4632 340.389 49.6983 340.305 49.9122C339.928 50.8104 339.466 51.7518 338.919 52.7364C338.372 53.7209 337.993 54.3845 337.782 54.7271C337.192 55.7119 336.304 56.6984 335.117 57.6868C333.973 58.7175 332.782 59.2365 331.544 59.2438Z" fill="black"/>
</svg>
